<svg width="22" height="27" viewBox="0 0 22 27" fill="none" xmlns="http://www.w3.org/2000/svg">
<g clip-path="url(#clip0_1_454)">
<path d="M18 11.1683V23.1649C18 23.5074 17.945 23.8465 17.8382 24.1629C17.7315 24.4793 17.5749 24.7668 17.3776 25.009C17.1803 25.2511 16.946 25.4433 16.6882 25.5742C16.4304 25.7053 16.1541 25.7728 15.875 25.7728H3.125C2.56141 25.7728 2.02091 25.498 1.6224 25.009C1.22388 24.5199 1 23.8566 1 23.1649V7.51713C1 6.82546 1.22388 6.16211 1.6224 5.67303C2.02091 5.18394 2.56141 4.90918 3.125 4.90918H12.0224" stroke="#FFB342" stroke-width="2" stroke-linecap="round" stroke-linejoin="round"/>
<path d="M21.7779 0.352351C21.698 0.244599 21.6011 0.157848 21.4931 0.0973406C21.3851 0.0368333 21.2682 0.0038261 21.1496 0.00031333C21.0309 -0.00319943 20.9128 0.0228553 20.8026 0.0769031C20.6923 0.130951 20.5921 0.21187 20.5081 0.31477L19.8316 1.1409C19.7496 1.24158 19.7036 1.37808 19.7036 1.52042C19.7036 1.66275 19.7496 1.79926 19.8316 1.89993L20.4518 2.65962C20.4924 2.70974 20.5407 2.74951 20.5939 2.77666C20.6472 2.80379 20.7042 2.81776 20.7618 2.81776C20.8195 2.81776 20.8765 2.80379 20.9297 2.77666C20.9829 2.74951 21.0313 2.70974 21.0719 2.65962L21.7314 1.85429C22.065 1.44559 22.0962 0.779847 21.7779 0.352351ZM18.4639 2.81868L8.59178 14.9121C8.53193 14.9852 8.48842 15.0761 8.46545 15.1758L8.00882 16.8448C7.99788 16.8901 7.9971 16.9382 8.00657 16.984C8.01605 17.0298 8.03541 17.0716 8.06263 17.105C8.08985 17.1384 8.12391 17.1622 8.16121 17.1737C8.19852 17.1854 8.23769 17.1844 8.2746 17.171L9.63357 16.6106C9.71486 16.5824 9.78888 16.529 9.84849 16.4556L19.7031 4.3394C19.7943 4.22632 19.8454 4.07367 19.8454 3.9146C19.8454 3.75552 19.7943 3.60287 19.7031 3.48979L19.159 2.81868C19.0667 2.70577 18.9417 2.64237 18.8114 2.64237C18.6811 2.64237 18.5562 2.70577 18.4639 2.81868Z" fill="#FFB342"/>
</g>
<defs>
<clipPath id="clip0_1_454">
<rect width="22" height="27" fill="white"/>
</clipPath>
</defs>
</svg>
