<svg width="242" height="48" viewBox="0 0 242 48" fill="none" xmlns="http://www.w3.org/2000/svg">
<g clip-path="url(#clip0_1_329)">
<path d="M57.0073 36V11.325H68.3823C71.089 11.325 73.1773 11.8967 74.6473 13.04C76.1173 14.1833 76.8523 15.7467 76.8523 17.73C76.8523 19.2 76.409 20.4483 75.5223 21.475C74.659 22.5017 73.469 23.19 71.9523 23.54V22.98C73.7256 23.2833 75.0906 23.96 76.0473 25.01C77.0273 26.0367 77.5173 27.3783 77.5173 29.035C77.5173 31.2283 76.7356 32.9433 75.1723 34.18C73.6323 35.3933 71.4973 36 68.7673 36H57.0073ZM62.2223 31.94H68.1023C69.4556 31.94 70.494 31.6833 71.2173 31.17C71.9406 30.6567 72.3023 29.84 72.3023 28.72C72.3023 27.5767 71.9406 26.76 71.2173 26.27C70.494 25.7567 69.4556 25.5 68.1023 25.5H62.2223V31.94ZM62.2223 21.475H67.4023C68.8256 21.475 69.8756 21.2183 70.5523 20.705C71.229 20.1917 71.5673 19.4217 71.5673 18.395C71.5673 17.3917 71.229 16.6333 70.5523 16.12C69.8756 15.6067 68.8256 15.35 67.4023 15.35H62.2223V21.475ZM81.0274 36V10.24H86.3124V36H81.0274ZM97.0719 36.385C94.8552 36.385 93.2102 35.7783 92.1369 34.565C91.0636 33.3283 90.5269 31.4617 90.5269 28.965V18.255H95.8119V28.965C95.8119 30.085 96.0336 30.9133 96.4769 31.45C96.9436 31.9867 97.6552 32.255 98.6119 32.255C99.6619 32.255 100.525 31.8933 101.202 31.17C101.902 30.4233 102.252 29.4317 102.252 28.195V18.255H107.537V36H102.392V32.605H102.882C102.345 33.795 101.575 34.7283 100.572 35.405C99.5919 36.0583 98.4252 36.385 97.0719 36.385ZM120.817 36.385C117.737 36.385 115.333 35.5567 113.607 33.9C111.88 32.2433 111.017 29.9917 111.017 27.145C111.017 25.3017 111.378 23.6917 112.102 22.315C112.848 20.9383 113.875 19.865 115.182 19.095C116.512 18.3017 118.063 17.905 119.837 17.905C121.587 17.905 123.045 18.2783 124.212 19.025C125.402 19.7717 126.288 20.8217 126.872 22.175C127.478 23.505 127.782 25.0567 127.782 26.83V28.055H115.357V25.43H123.932L123.337 25.92C123.337 24.45 123.033 23.3417 122.427 22.595C121.843 21.825 120.992 21.44 119.872 21.44C118.635 21.44 117.678 21.895 117.002 22.805C116.348 23.715 116.022 25.0217 116.022 26.725V27.285C116.022 29.0117 116.442 30.295 117.282 31.135C118.145 31.975 119.382 32.395 120.992 32.395C121.948 32.395 122.847 32.2783 123.687 32.045C124.55 31.7883 125.367 31.3917 126.137 30.855L127.607 34.355C126.72 35.0083 125.693 35.51 124.527 35.86C123.383 36.21 122.147 36.385 120.817 36.385ZM143.42 36.385C140.783 36.385 138.52 35.86 136.63 34.81C134.74 33.76 133.282 32.29 132.255 30.4C131.252 28.4867 130.75 26.235 130.75 23.645C130.75 21.055 131.252 18.815 132.255 16.925C133.282 15.035 134.74 13.565 136.63 12.515C138.52 11.465 140.783 10.94 143.42 10.94C145.123 10.94 146.675 11.185 148.075 11.675C149.475 12.1417 150.665 12.83 151.645 13.74L149.93 18.045C148.857 17.205 147.83 16.61 146.85 16.26C145.893 15.91 144.808 15.735 143.595 15.735C141.285 15.735 139.512 16.4233 138.275 17.8C137.062 19.1533 136.455 21.1017 136.455 23.645C136.455 26.1883 137.062 28.1483 138.275 29.525C139.512 30.9017 141.285 31.59 143.595 31.59C144.808 31.59 145.893 31.415 146.85 31.065C147.83 30.715 148.857 30.12 149.93 29.28L151.645 33.585C150.665 34.4717 149.475 35.16 148.075 35.65C146.675 36.14 145.123 36.385 143.42 36.385ZM162.264 36.385C160.374 36.385 158.729 36.0117 157.329 35.265C155.953 34.495 154.879 33.4217 154.109 32.045C153.363 30.6683 152.989 29.0233 152.989 27.11C152.989 25.22 153.363 23.5867 154.109 22.21C154.879 20.8333 155.953 19.7717 157.329 19.025C158.729 18.2783 160.374 17.905 162.264 17.905C164.154 17.905 165.799 18.2783 167.199 19.025C168.599 19.7717 169.673 20.8333 170.419 22.21C171.189 23.5867 171.574 25.22 171.574 27.11C171.574 29.0233 171.189 30.6683 170.419 32.045C169.673 33.4217 168.599 34.495 167.199 35.265C165.799 36.0117 164.154 36.385 162.264 36.385ZM162.264 32.395C163.478 32.395 164.434 31.9633 165.134 31.1C165.858 30.2367 166.219 28.9067 166.219 27.11C166.219 25.3133 165.858 23.995 165.134 23.155C164.434 22.315 163.478 21.895 162.264 21.895C161.051 21.895 160.083 22.315 159.359 23.155C158.659 23.995 158.309 25.3133 158.309 27.11C158.309 28.9067 158.659 30.2367 159.359 31.1C160.083 31.9633 161.051 32.395 162.264 32.395ZM201.091 36.385C199.551 36.385 198.198 36.0117 197.031 35.265C195.865 34.5183 194.955 33.4567 194.301 32.08C193.648 30.7033 193.321 29.0467 193.321 27.11C193.321 25.1967 193.648 23.5517 194.301 22.175C194.955 20.7983 195.865 19.7483 197.031 19.025C198.198 18.2783 199.551 17.905 201.091 17.905C202.515 17.905 203.786 18.255 204.906 18.955C206.05 19.6317 206.796 20.5533 207.146 21.72H206.761L207.181 18.255H212.256C212.186 19.025 212.116 19.8067 212.046 20.6C212 21.37 211.976 22.1283 211.976 22.875V36H206.726L206.691 32.675H207.111C206.738 33.795 205.991 34.6933 204.871 35.37C203.751 36.0467 202.491 36.385 201.091 36.385ZM202.701 32.395C203.915 32.395 204.895 31.9633 205.641 31.1C206.388 30.2367 206.761 28.9067 206.761 27.11C206.761 25.3133 206.388 23.995 205.641 23.155C204.895 22.315 203.915 21.895 202.701 21.895C201.488 21.895 200.508 22.315 199.761 23.155C199.015 23.995 198.641 25.3133 198.641 27.11C198.641 28.9067 199.003 30.2367 199.726 31.1C200.473 31.9633 201.465 32.395 202.701 32.395ZM216.276 36V22.945C216.276 22.175 216.252 21.3933 216.206 20.6C216.182 19.8067 216.124 19.025 216.031 18.255H221.106L221.701 23.435H220.896C221.129 22.175 221.502 21.1367 222.016 20.32C222.552 19.5033 223.206 18.8967 223.976 18.5C224.769 18.1033 225.667 17.905 226.671 17.905C227.114 17.905 227.464 17.9283 227.721 17.975C227.977 17.9983 228.234 18.0567 228.491 18.15L228.456 22.805C227.966 22.595 227.546 22.4667 227.196 22.42C226.869 22.35 226.449 22.315 225.936 22.315C224.956 22.315 224.139 22.5017 223.486 22.875C222.856 23.2483 222.377 23.7967 222.051 24.52C221.747 25.2433 221.596 26.1183 221.596 27.145V36H216.276Z" fill="#1C2752"/>
<path d="M174.987 36V10.24H180.272V36H174.987ZM184.592 36V10.24H189.877V36H184.592Z" fill="#FFB342"/>
<path d="M39.0644 30.098H44V26H29.733C29.4735 30.2521 25.9028 33.626 21.5381 33.626C17.1734 33.626 13.6027 30.2521 13.3432 26H-1.49006e-05L-1.52588e-05 30.098H4.07406C4.29203 30.9402 4.57747 31.767 4.92001 32.5784C5.30925 33.4925 5.77116 34.3655 6.30572 35.1923L2.74025 38.7203L8.35573 44.2768L11.9264 40.7437C12.7516 41.2624 13.6235 41.7143 14.5317 42.0943C15.5541 42.5205 16.6077 42.8543 17.682 43.0854V48H25.6329V43.0443C26.645 42.8133 27.6362 42.4949 28.6015 42.0943C29.5773 41.6886 30.5062 41.2007 31.3833 40.6359L34.8917 44.1074L40.5124 38.5457L36.9469 35.0177C37.4348 34.2423 37.8552 33.4258 38.2184 32.5784C38.561 31.767 38.8464 30.9402 39.0644 30.098Z" fill="#1C2752"/>
<path d="M36.9436 8.17054V16.4455C36.9436 17.0071 36.4796 17.4627 35.9078 17.4627H35.1741C34.6022 17.4627 34.1383 17.0071 34.1383 16.4455V6.01968C32.0127 4.63169 29.6282 3.59334 27.0711 3V17.3567C27.0711 17.9183 26.6071 18.3739 26.0353 18.3739H17.9431C17.3712 18.3739 16.9073 17.9183 16.9073 17.3567V3C14.3825 3.59334 11.998 4.64228 9.87248 6.01968V16.4455C9.87248 17.0071 9.40853 17.4627 8.83668 17.4627H8.10299C7.53114 17.4627 7.06718 17.0071 7.06718 16.4455V8.17054C2.72977 12.112 0 17.7381 0 24H44C44.0108 17.7381 41.2918 12.112 36.9436 8.17054Z" fill="#FFB342"/>
<path d="M25 15.6436C25 16.1171 24.653 16.5 24.2164 16.5H19.7836C19.3582 16.5 19 16.1171 19 15.6436V1.35642C19 0.882871 19.347 0.5 19.7836 0.5H24.2164C24.6418 0.5 25 0.882871 25 1.35642V15.6436Z" fill="#FFB342"/>
</g>
<defs>
<clipPath id="clip0_1_329">
<rect width="242" height="48" fill="white"/>
</clipPath>
</defs>
</svg>
