<svg width="26" height="26" viewBox="0 0 26 26" fill="none" xmlns="http://www.w3.org/2000/svg">
<g clip-path="url(#clip0_1_348)">
<path d="M24.2509 19.8062C23.3347 18.8832 21.1158 17.5361 20.0393 16.9933C18.6373 16.2871 18.5219 16.2294 17.42 17.0481C16.6849 17.5944 16.1963 18.0824 15.3361 17.899C14.4759 17.7155 12.6066 16.6811 10.9698 15.0497C9.33303 13.4182 8.23858 11.4948 8.05454 10.6376C7.8705 9.78029 8.36666 9.29743 8.90783 8.56073C9.67054 7.52231 9.61285 7.34924 8.96091 5.94738C8.45263 4.85704 7.06625 2.65906 6.13969 1.74756C5.14851 0.768566 5.14851 0.941635 4.50984 1.20701C3.98989 1.42576 3.49106 1.69167 3.01961 2.0014C2.09651 2.61464 1.58419 3.12404 1.22591 3.88959C0.867636 4.65513 0.70667 6.44986 2.55691 9.81087C4.40714 13.1719 5.70525 14.8905 8.39205 17.5696C11.0788 20.2487 13.1449 21.6892 16.1651 23.383C19.9014 25.4754 21.3345 25.0675 22.1024 24.7098C22.8703 24.3522 23.382 23.8445 23.9965 22.9215C24.307 22.4508 24.5735 21.9526 24.7926 21.4331C25.0586 20.7967 25.2317 20.7967 24.2509 19.8062Z" stroke="#1C2752" stroke-width="2" stroke-miterlimit="10"/>
</g>
<defs>
<clipPath id="clip0_1_348">
<rect width="26" height="26" fill="white"/>
</clipPath>
</defs>
</svg>
