<svg width="18" height="18" viewBox="0 0 18 18" fill="none" xmlns="http://www.w3.org/2000/svg">
<path d="M9 0C4.02966 0 0 4.02966 0 9C0 13.9703 4.02966 18 9 18C13.9703 18 18 13.9703 18 9C18 4.02966 13.9703 0 9 0ZM13.1538 10.3846H9C8.81639 10.3846 8.6403 10.3117 8.51046 10.1818C8.38063 10.052 8.30769 9.87592 8.30769 9.69231V3.46154C8.30769 3.27793 8.38063 3.10184 8.51046 2.972C8.6403 2.84217 8.81639 2.76923 9 2.76923C9.18361 2.76923 9.3597 2.84217 9.48954 2.972C9.61937 3.10184 9.69231 3.27793 9.69231 3.46154V9H13.1538C13.3375 9 13.5135 9.07294 13.6434 9.20277C13.7732 9.3326 13.8462 9.5087 13.8462 9.69231C13.8462 9.87592 13.7732 10.052 13.6434 10.1818C13.5135 10.3117 13.3375 10.3846 13.1538 10.3846Z" fill="#1C2752"/>
</svg>
