<svg width="30" height="29" viewBox="0 0 30 29" fill="none" xmlns="http://www.w3.org/2000/svg">
<path d="M30 14.0729C29.9903 13.8973 29.9172 13.7307 29.7936 13.6026C29.6701 13.4746 29.504 13.3934 29.325 13.3733L27.476 13.0813C27.3928 13.068 27.3163 13.0288 27.2578 12.9695C27.1993 12.9103 27.162 12.8342 27.1514 12.7526C27.1161 12.5309 27.0793 12.3008 27.0288 12.0826C27.0126 12.0033 27.0221 11.9209 27.0561 11.8471C27.0901 11.7733 27.1469 11.7117 27.2185 11.6709L28.8613 10.7806C29.0244 10.6995 29.1513 10.5627 29.2178 10.3962C29.2843 10.2297 29.2857 10.0452 29.2219 9.87768L28.937 9.11057C28.8745 8.94253 28.7508 8.80288 28.5894 8.71835C28.428 8.63381 28.2403 8.61034 28.0623 8.65241L26.2197 9.0043C26.1373 9.01867 26.0524 9.00729 25.977 8.97178C25.9017 8.93626 25.8397 8.87844 25.8 8.80654C25.6926 8.61018 25.5757 8.41031 25.4538 8.21396C25.4096 8.144 25.3888 8.06229 25.3945 7.98026C25.4002 7.89823 25.4321 7.81999 25.4856 7.7565L26.7115 6.37428C26.8361 6.2438 26.9076 6.0735 26.9128 5.89526C26.918 5.71702 26.8564 5.54305 26.7397 5.40589L26.2046 4.77882C26.0882 4.64119 25.9236 4.5506 25.7427 4.5246C25.5617 4.4986 25.3774 4.53903 25.2252 4.63807L23.612 5.58324C23.5405 5.62506 23.4571 5.64333 23.3741 5.63534C23.2911 5.62736 23.213 5.59355 23.1512 5.5389C22.9731 5.38618 22.7906 5.23909 22.6197 5.10326C22.5541 5.05275 22.5067 4.98314 22.4844 4.90455C22.4621 4.82596 22.4661 4.74247 22.4957 4.66622L23.1635 2.949C23.2362 2.78516 23.2447 2.60094 23.1874 2.43137C23.1301 2.26179 23.011 2.11866 22.8526 2.02917L22.125 1.61464C21.9666 1.52548 21.78 1.4965 21.601 1.53325C21.422 1.57 21.2632 1.6699 21.1551 1.81381L19.976 3.25937C19.9336 3.3222 19.87 3.36865 19.7963 3.39074C19.7226 3.41283 19.6434 3.40918 19.5721 3.38042C19.5281 3.36282 19.156 3.21433 18.8668 3.12002C18.7875 3.09479 18.7185 3.04546 18.67 2.97923C18.6215 2.913 18.5959 2.83336 18.5971 2.75195L18.6252 0.917201C18.6353 0.738048 18.5781 0.561464 18.4643 0.420516C18.3505 0.279569 18.188 0.183924 18.0072 0.151492L17.1815 0.0107369C17.0016 -0.0195951 16.8165 0.0148439 16.6607 0.107654C16.5048 0.200465 16.3888 0.345335 16.3341 0.515345L15.7212 2.26141C15.6933 2.33892 15.6408 2.40569 15.5712 2.45192C15.5016 2.49815 15.4187 2.52141 15.3346 2.51829H14.6315C14.548 2.51997 14.4662 2.4959 14.3975 2.44953C14.3289 2.40315 14.277 2.33683 14.2493 2.26001L13.6392 0.52379C13.5855 0.352539 13.4697 0.206255 13.3135 0.112333C13.1572 0.0184107 12.9713 -0.0167085 12.7904 0.0135521L11.9632 0.154307C11.7836 0.186483 11.622 0.281192 11.5084 0.420848C11.3949 0.560505 11.3372 0.735621 11.3459 0.913682L11.3748 2.75476C11.3753 2.83739 11.3486 2.918 11.2984 2.98457C11.2482 3.05115 11.1774 3.10014 11.0964 3.12424C10.9313 3.18688 10.5728 3.3206 10.4099 3.37972C10.2656 3.43039 10.1084 3.37479 9.9815 3.23192L8.8089 1.82437C8.70132 1.67958 8.54268 1.57871 8.3635 1.54117C8.18432 1.50362 7.99724 1.53205 7.83823 1.62098L7.11275 2.03128C6.95268 2.12094 6.83228 2.26524 6.77476 2.43639C6.71724 2.60753 6.72666 2.79339 6.80121 2.95815L7.46828 4.67114C7.49738 4.74756 7.5012 4.83096 7.47921 4.90961C7.45722 4.98826 7.41052 5.0582 7.34568 5.1096C7.17044 5.25035 6.99088 5.39111 6.81203 5.54735C6.75062 5.60157 6.67304 5.63519 6.59065 5.64329C6.50825 5.6514 6.42536 5.63356 6.3541 5.59239L4.75963 4.62892C4.60652 4.53173 4.42233 4.4924 4.24163 4.51831C4.06092 4.54423 3.89612 4.6336 3.77814 4.76967L3.2452 5.39533C3.12682 5.53156 3.06409 5.7056 3.06902 5.88415C3.07394 6.0627 3.14617 6.23321 3.27189 6.36302L4.50362 7.74383C4.55828 7.80605 4.59095 7.8838 4.5968 7.96556C4.60264 8.04732 4.58135 8.12874 4.53607 8.19777C4.41275 8.3892 4.2952 8.59048 4.18847 8.79176C4.14855 8.86416 4.08615 8.92237 4.01023 8.95802C3.93431 8.99367 3.84877 9.00495 3.76588 8.99022L1.92621 8.64326C1.7481 8.60132 1.56039 8.62484 1.39891 8.70935C1.23743 8.79385 1.11349 8.93342 1.05073 9.10142L0.762272 9.86713C0.698513 10.0348 0.700003 10.2195 0.766461 10.3862C0.832919 10.5529 0.959726 10.69 1.12285 10.7715L2.76564 11.6618C2.83951 11.7015 2.89812 11.7637 2.93259 11.8389C2.96707 11.914 2.97554 11.9981 2.95674 12.0784L2.93943 12.1678C2.90193 12.3641 2.86732 12.5499 2.83415 12.7477C2.82268 12.8283 2.78539 12.9032 2.72763 12.9619C2.66986 13.0205 2.59456 13.0599 2.51251 13.0742L0.659868 13.3663C0.47869 13.388 0.311803 13.4733 0.190375 13.6063C0.0689462 13.7394 0.00127967 13.9109 1.22962e-05 14.0891V14.9041C-0.00104353 15.0829 0.0659291 15.2557 0.187962 15.3891C0.309996 15.5225 0.478408 15.607 0.660589 15.6261L2.51251 15.9175C2.59573 15.9307 2.67233 15.9699 2.73083 16.0291C2.78933 16.0884 2.82659 16.1645 2.83703 16.2462C2.87237 16.4686 2.90915 16.698 2.95963 16.9162C2.97589 16.9955 2.96636 17.0778 2.93236 17.1516C2.89835 17.2255 2.84158 17.2871 2.76996 17.3279L1.1279 18.2195C0.964773 18.3007 0.837904 18.4375 0.77142 18.604C0.704937 18.7705 0.703477 18.955 0.76732 19.1225L1.05578 19.8896C1.11839 20.0576 1.2422 20.1971 1.40356 20.2816C1.56492 20.3661 1.75252 20.3897 1.93054 20.3478L3.77309 19.9994C3.85549 19.9848 3.94051 19.9961 4.01592 20.0316C4.09134 20.0672 4.15326 20.1251 4.1928 20.1972C4.30097 20.3942 4.41708 20.5934 4.53895 20.7897C4.58343 20.8596 4.60429 20.9414 4.5986 21.0235C4.59291 21.1055 4.56094 21.1838 4.50722 21.2472L3.28126 22.6287C3.15526 22.7582 3.08206 22.9281 3.07542 23.1066C3.06878 23.2851 3.12916 23.4597 3.2452 23.5978L3.77958 24.2249C3.89589 24.3626 4.0605 24.4533 4.24146 24.4793C4.42242 24.5053 4.60683 24.4648 4.7589 24.3656L6.37212 23.4205C6.44365 23.3786 6.52706 23.3604 6.61004 23.3684C6.69301 23.3763 6.77116 23.4101 6.83294 23.4648C7.01179 23.6175 7.19352 23.7646 7.36443 23.9004C7.42997 23.951 7.47737 24.0206 7.49979 24.0991C7.52221 24.1777 7.5185 24.2611 7.48919 24.3375L6.82068 26.0547C6.74796 26.2185 6.73944 26.4028 6.79674 26.5723C6.85404 26.7419 6.97317 26.885 7.1315 26.9745L7.86059 27.3855C8.01894 27.4748 8.20547 27.5039 8.38444 27.4672C8.56341 27.4306 8.72224 27.3309 8.83054 27.1871L10.024 25.7549C10.125 25.6331 10.2837 25.5789 10.4012 25.6254C10.6522 25.7267 10.8202 25.7837 11.118 25.8809C11.1974 25.9062 11.2664 25.9555 11.315 26.0217C11.3636 26.0879 11.3894 26.1675 11.3885 26.2489L11.3596 28.0823C11.3499 28.2614 11.4072 28.4378 11.5209 28.5787C11.6346 28.7196 11.797 28.8153 11.9777 28.848L12.8034 28.9887C12.9833 29.0194 13.1685 28.9851 13.3245 28.8922C13.4804 28.7994 13.5964 28.6543 13.6507 28.4841L14.2637 26.7409C14.2914 26.6633 14.344 26.5965 14.4136 26.5502C14.4832 26.504 14.5661 26.4808 14.6502 26.484H15.3534C15.4368 26.4822 15.5188 26.5062 15.5874 26.5526C15.6561 26.599 15.7079 26.6654 15.7356 26.7423L16.3464 28.4785C16.3937 28.6292 16.4893 28.7612 16.6191 28.855C16.7488 28.9489 16.906 28.9997 17.0676 29C17.1106 29.0001 17.1536 28.9963 17.1959 28.9887L18.0231 28.848C18.2028 28.8158 18.3644 28.7211 18.4779 28.5814C18.5914 28.4418 18.6492 28.2667 18.6404 28.0886L18.6115 26.2475C18.611 26.1664 18.6369 26.0872 18.6855 26.0214C18.7341 25.9556 18.8029 25.9067 18.882 25.8816C19.1589 25.7908 19.3536 25.7176 19.5245 25.6528L19.5678 25.6366C19.7914 25.5613 19.8995 25.6528 19.9623 25.7288L21.1702 27.1807C21.2785 27.3244 21.4372 27.424 21.616 27.4606C21.7948 27.4972 21.9811 27.4682 22.1394 27.3792L22.8656 26.9689C23.0245 26.8794 23.144 26.7359 23.2013 26.5658C23.2586 26.3957 23.2498 26.211 23.1764 26.047L22.5101 24.334C22.4807 24.2576 22.4766 24.1742 22.4985 24.0955C22.5204 24.0168 22.5671 23.9469 22.632 23.8955C22.8072 23.7548 22.9868 23.614 23.1656 23.4578C23.2274 23.4034 23.3055 23.3698 23.3883 23.3619C23.4711 23.3541 23.5543 23.3724 23.6257 23.4141L25.2404 24.3572C25.3934 24.4545 25.5777 24.4939 25.7584 24.468C25.9392 24.4421 26.104 24.3526 26.2219 24.2164L26.7555 23.5901C26.8739 23.4538 26.9366 23.2798 26.9317 23.1012C26.9268 22.9227 26.8546 22.7522 26.7288 22.6224L25.4986 21.238C25.4439 21.1758 25.4112 21.0981 25.4054 21.0163C25.3995 20.9346 25.4208 20.8531 25.4661 20.7841C25.5894 20.5934 25.707 20.3921 25.8137 20.1901C25.8538 20.1179 25.9162 20.0598 25.9921 20.0242C26.068 19.9885 26.1534 19.9772 26.2363 19.9917L28.0738 20.3414C28.2519 20.3834 28.4396 20.3599 28.6011 20.2753C28.7626 20.1908 28.8865 20.0513 28.9493 19.8833L29.2341 19.1176C29.2979 18.95 29.2963 18.7654 29.2299 18.5988C29.1634 18.4323 29.0366 18.2953 28.8736 18.2139L27.2293 17.3222C27.1565 17.282 27.0988 17.22 27.0649 17.1454C27.031 17.0707 27.0227 16.9874 27.0411 16.9077L27.0584 16.8183C27.0959 16.622 27.1305 16.4362 27.1637 16.2384C27.1752 16.1578 27.2125 16.0829 27.2702 16.0242C27.328 15.9656 27.4033 15.9262 27.4853 15.9119L29.338 15.6205C29.5196 15.5991 29.687 15.5138 29.8089 15.3807C29.9307 15.2475 29.9987 15.0756 30 14.897V14.0729ZM9.63102 20.6884C9.54115 20.8409 9.41549 20.9704 9.26435 21.0663C9.11322 21.1622 8.94093 21.2217 8.76164 21.24C8.58235 21.2583 8.40118 21.2348 8.233 21.1714C8.06483 21.1081 7.91446 21.0067 7.79424 20.8756C6.16958 19.1225 5.27253 16.8416 5.27813 14.4778C5.28373 12.1141 6.19158 9.83724 7.82453 8.0915C7.94537 7.96046 8.09639 7.85932 8.26514 7.79642C8.43389 7.73351 8.61554 7.71063 8.79512 7.72966C8.97471 7.7487 9.14709 7.80911 9.29806 7.90592C9.44903 8.00272 9.57428 8.13314 9.66347 8.28645L12.9555 13.9413C13.0544 14.1099 13.1064 14.3009 13.1064 14.4952C13.1064 14.6895 13.0544 14.8804 12.9555 15.049L9.63102 20.6884ZM15 24.0088C14.3137 24.009 13.6294 23.9382 12.9584 23.7977C12.7836 23.7596 12.6205 23.6818 12.4822 23.5707C12.344 23.4596 12.2345 23.3182 12.1626 23.1581C12.0908 22.998 12.0586 22.8236 12.0687 22.6491C12.0788 22.4746 12.1308 22.3049 12.2207 22.1537L15.538 16.5234C15.6378 16.3538 15.7817 16.2128 15.9551 16.1149C16.1286 16.0169 16.3255 15.9653 16.526 15.9654H23.1707C23.3497 15.9651 23.5262 16.006 23.686 16.0847C23.8458 16.1634 23.9843 16.2778 24.0903 16.4185C24.1964 16.5592 24.267 16.7223 24.2964 16.8946C24.3258 17.0669 24.3132 17.2435 24.2596 17.4102C22.9983 21.2331 19.3269 24.0088 15 24.0088ZM15.5416 12.4739L12.2596 6.83385C12.1707 6.6824 12.1195 6.51265 12.1102 6.33832C12.1009 6.16399 12.1338 5.98998 12.2062 5.83034C12.2786 5.67071 12.3884 5.52994 12.5269 5.4194C12.6653 5.30886 12.8285 5.23167 13.0031 5.19405C13.6597 5.05901 14.329 4.99108 15 4.99136C19.3269 4.99136 22.9983 7.76706 24.2575 11.5921C24.311 11.7587 24.3236 11.9354 24.2942 12.1077C24.2648 12.28 24.1942 12.4431 24.0882 12.5838C23.9821 12.7245 23.8436 12.8389 23.6838 12.9176C23.524 12.9963 23.3475 13.0372 23.1685 13.0369H16.5339C16.3322 13.0373 16.134 12.9854 15.9597 12.8865C15.7853 12.7875 15.641 12.6452 15.5416 12.4739Z" fill="#FFB342"/>
</svg>
