<svg width="20" height="19" viewBox="0 0 20 19" fill="none" xmlns="http://www.w3.org/2000/svg">
<g clip-path="url(#clip0_1_1035)">
<path d="M13.6585 1.54725C14.7231 1.55031 15.7431 1.95889 16.4958 2.68376C17.2486 3.40863 17.6729 4.39088 17.6761 5.41599V13.1527C17.6729 14.1778 17.2486 15.16 16.4958 15.8849C15.7431 16.6098 14.7231 17.0183 13.6585 17.0214H5.6243C4.55976 17.0183 3.53973 16.6098 2.78698 15.8849C2.03423 15.16 1.60994 14.1778 1.60676 13.1527V5.41599C1.60994 4.39088 2.03423 3.40863 2.78698 2.68376C3.53973 1.95889 4.55976 1.55031 5.6243 1.54725H13.6585ZM13.6585 0H5.6243C2.53087 0 0 2.43713 0 5.41599V13.1527C0 16.1315 2.53087 18.5686 5.6243 18.5686H13.6585C16.752 18.5686 19.2828 16.1315 19.2828 13.1527V5.41599C19.2828 2.43713 16.752 0 13.6585 0Z" fill="white"/>
<path d="M14.8638 5.41679C14.6254 5.41679 14.3924 5.34872 14.1942 5.2212C13.996 5.09368 13.8416 4.91243 13.7504 4.70037C13.6591 4.4883 13.6353 4.25496 13.6818 4.02984C13.7283 3.80471 13.8431 3.59792 14.0116 3.43562C14.1802 3.27332 14.3949 3.16278 14.6287 3.118C14.8625 3.07323 15.1048 3.09621 15.325 3.18405C15.5452 3.27188 15.7334 3.42063 15.8659 3.61148C15.9983 3.80233 16.069 4.02671 16.069 4.25625C16.0693 4.40874 16.0384 4.5598 15.9779 4.70075C15.9175 4.8417 15.8287 4.96977 15.7167 5.0776C15.6048 5.18543 15.4718 5.27091 15.3254 5.32911C15.179 5.38732 15.0222 5.41711 14.8638 5.41679ZM9.64151 6.1902C10.2772 6.1902 10.8986 6.37172 11.4271 6.71179C11.9556 7.05186 12.3676 7.53522 12.6108 8.10075C12.8541 8.66627 12.9177 9.28855 12.7937 9.8889C12.6697 10.4893 12.3636 11.0407 11.9141 11.4736C11.4646 11.9064 10.892 12.2012 10.2685 12.3206C9.64507 12.44 8.99886 12.3787 8.41158 12.1445C7.82431 11.9102 7.32236 11.5135 6.96921 11.0046C6.61606 10.4956 6.42756 9.89723 6.42756 9.28512C6.42847 8.46456 6.76738 7.67787 7.36991 7.09765C7.97245 6.51743 8.7894 6.19108 9.64151 6.1902ZM9.64151 4.64295C8.68806 4.64295 7.75603 4.91521 6.96327 5.4253C6.17051 5.93539 5.55263 6.66039 5.18776 7.50864C4.82289 8.35688 4.72742 9.29027 4.91343 10.1908C5.09944 11.0913 5.55857 11.9184 6.23275 12.5676C6.90694 13.2168 7.76591 13.659 8.70104 13.8381C9.63616 14.0172 10.6054 13.9253 11.4863 13.5739C12.3672 13.2226 13.1201 12.6276 13.6498 11.8642C14.1795 11.1008 14.4622 10.2033 14.4622 9.28512C14.4622 8.05394 13.9543 6.87319 13.0503 6.00261C12.1462 5.13204 10.92 4.64295 9.64151 4.64295Z" fill="white"/>
</g>
<defs>
<clipPath id="clip0_1_1035">
<rect width="20" height="19" fill="white"/>
</clipPath>
</defs>
</svg>
