<svg width="24" height="18" viewBox="0 0 24 18" fill="none" xmlns="http://www.w3.org/2000/svg">
<path d="M19.8555 1.46094C18.7031 1.94922 17.6973 2.69141 16.8379 3.6875C15.9785 4.68359 15.4609 5.69922 15.2852 6.73438C15.1875 7.28125 15.1387 7.75 15.1387 8.14062C15.1387 8.58984 15.1875 8.96094 15.2852 9.25391C16.2031 8.29687 17.3652 7.81836 18.7715 7.81836C20.1777 7.81836 21.3203 8.22852 22.1992 9.04883C23.0781 9.86914 23.5176 11.002 23.5176 12.4473C23.5176 13.8145 23.0488 14.9277 22.1113 15.7871C21.1934 16.6465 20.0215 17.0762 18.5957 17.0762C16.6426 17.0762 15.2168 16.373 14.3184 14.9668C13.9082 14.3613 13.5859 13.6191 13.3516 12.7402C13.1172 11.8418 13 10.9238 13 9.98633C13 7.93555 13.5273 6.06055 14.582 4.36133C15.6367 2.66211 17.209 1.33398 19.2988 0.376953L19.8555 1.46094ZM7.49219 1.46094C6.33984 1.94922 5.33398 2.69141 4.47461 3.6875C3.61523 4.68359 3.09766 5.69922 2.92188 6.73438C2.82422 7.28125 2.77539 7.75 2.77539 8.14062C2.77539 8.58984 2.82422 8.96094 2.92188 9.25391C3.83984 8.29687 5.00195 7.81836 6.4082 7.81836C7.81445 7.81836 8.95703 8.22852 9.83594 9.04883C10.7148 9.86914 11.1543 11.002 11.1543 12.4473C11.1543 13.8145 10.6855 14.9277 9.74805 15.7871C8.83008 16.6465 7.6582 17.0762 6.23242 17.0762C4.2793 17.0762 2.85352 16.373 1.95508 14.9668C1.54492 14.3613 1.22266 13.6191 0.988281 12.7402C0.753906 11.8418 0.636719 10.9238 0.636719 9.98633C0.636719 7.93555 1.16406 6.06055 2.21875 4.36133C3.27344 2.66211 4.8457 1.33398 6.93555 0.376953L7.49219 1.46094Z" fill="#1C2752"/>
</svg>
