<svg width="242" height="48" viewBox="0 0 242 48" fill="none" xmlns="http://www.w3.org/2000/svg">
<g clip-path="url(#clip0_1_977)">
<path d="M57.0072 35.5002V10.8252H68.3822C71.0888 10.8252 73.1772 11.3969 74.6472 12.5402C76.1172 13.6835 76.8522 15.2469 76.8522 17.2302C76.8522 18.7002 76.4089 19.9485 75.5222 20.9752C74.6588 22.0019 73.4688 22.6902 71.9522 23.0402V22.4802C73.7255 22.7835 75.0905 23.4602 76.0472 24.5102C77.0272 25.5369 77.5172 26.8785 77.5172 28.5352C77.5172 30.7285 76.7355 32.4435 75.1722 33.6802C73.6322 34.8935 71.4972 35.5002 68.7672 35.5002H57.0072ZM62.2222 31.4402H68.1022C69.4555 31.4402 70.4939 31.1835 71.2172 30.6702C71.9405 30.1569 72.3022 29.3402 72.3022 28.2202C72.3022 27.0769 71.9405 26.2602 71.2172 25.7702C70.4939 25.2569 69.4555 25.0002 68.1022 25.0002H62.2222V31.4402ZM62.2222 20.9752H67.4022C68.8255 20.9752 69.8755 20.7185 70.5522 20.2052C71.2289 19.6919 71.5672 18.9219 71.5672 17.8952C71.5672 16.8919 71.2289 16.1335 70.5522 15.6202C69.8755 15.1069 68.8255 14.8502 67.4022 14.8502H62.2222V20.9752ZM81.0273 35.5002V9.74023H86.3123V35.5002H81.0273ZM97.0718 35.8852C94.8551 35.8852 93.2101 35.2785 92.1368 34.0652C91.0635 32.8285 90.5268 30.9619 90.5268 28.4652V17.7552H95.8118V28.4652C95.8118 29.5852 96.0335 30.4135 96.4768 30.9502C96.9435 31.4869 97.6551 31.7552 98.6118 31.7552C99.6618 31.7552 100.525 31.3935 101.202 30.6702C101.902 29.9235 102.252 28.9319 102.252 27.6952V17.7552H107.537V35.5002H102.392V32.1052H102.882C102.345 33.2952 101.575 34.2285 100.572 34.9052C99.5918 35.5585 98.4251 35.8852 97.0718 35.8852ZM120.817 35.8852C117.737 35.8852 115.333 35.0569 113.607 33.4002C111.88 31.7435 111.017 29.4919 111.017 26.6452C111.017 24.8019 111.378 23.1919 112.102 21.8152C112.848 20.4385 113.875 19.3652 115.182 18.5952C116.512 17.8019 118.063 17.4052 119.837 17.4052C121.587 17.4052 123.045 17.7785 124.212 18.5252C125.402 19.2719 126.288 20.3219 126.872 21.6752C127.478 23.0052 127.782 24.5569 127.782 26.3302V27.5552H115.357V24.9302H123.932L123.337 25.4202C123.337 23.9502 123.033 22.8419 122.427 22.0952C121.843 21.3252 120.992 20.9402 119.872 20.9402C118.635 20.9402 117.678 21.3952 117.002 22.3052C116.348 23.2152 116.022 24.5219 116.022 26.2252V26.7852C116.022 28.5119 116.442 29.7952 117.282 30.6352C118.145 31.4752 119.382 31.8952 120.992 31.8952C121.948 31.8952 122.847 31.7785 123.687 31.5452C124.55 31.2885 125.367 30.8919 126.137 30.3552L127.607 33.8552C126.72 34.5085 125.693 35.0102 124.527 35.3602C123.383 35.7102 122.147 35.8852 120.817 35.8852ZM143.42 35.8852C140.783 35.8852 138.52 35.3602 136.63 34.3102C134.74 33.2602 133.281 31.7902 132.255 29.9002C131.251 27.9869 130.75 25.7352 130.75 23.1452C130.75 20.5552 131.251 18.3152 132.255 16.4252C133.281 14.5352 134.74 13.0652 136.63 12.0152C138.52 10.9652 140.783 10.4402 143.42 10.4402C145.123 10.4402 146.675 10.6852 148.075 11.1752C149.475 11.6419 150.665 12.3302 151.645 13.2402L149.93 17.5452C148.856 16.7052 147.83 16.1102 146.85 15.7602C145.893 15.4102 144.808 15.2352 143.595 15.2352C141.285 15.2352 139.511 15.9235 138.275 17.3002C137.061 18.6535 136.455 20.6019 136.455 23.1452C136.455 25.6885 137.061 27.6485 138.275 29.0252C139.511 30.4019 141.285 31.0902 143.595 31.0902C144.808 31.0902 145.893 30.9152 146.85 30.5652C147.83 30.2152 148.856 29.6202 149.93 28.7802L151.645 33.0852C150.665 33.9719 149.475 34.6602 148.075 35.1502C146.675 35.6402 145.123 35.8852 143.42 35.8852ZM162.264 35.8852C160.374 35.8852 158.729 35.5119 157.329 34.7652C155.953 33.9952 154.879 32.9219 154.109 31.5452C153.363 30.1685 152.989 28.5235 152.989 26.6102C152.989 24.7202 153.363 23.0869 154.109 21.7102C154.879 20.3335 155.953 19.2719 157.329 18.5252C158.729 17.7785 160.374 17.4052 162.264 17.4052C164.154 17.4052 165.799 17.7785 167.199 18.5252C168.599 19.2719 169.673 20.3335 170.419 21.7102C171.189 23.0869 171.574 24.7202 171.574 26.6102C171.574 28.5235 171.189 30.1685 170.419 31.5452C169.673 32.9219 168.599 33.9952 167.199 34.7652C165.799 35.5119 164.154 35.8852 162.264 35.8852ZM162.264 31.8952C163.478 31.8952 164.434 31.4635 165.134 30.6002C165.858 29.7369 166.219 28.4069 166.219 26.6102C166.219 24.8135 165.858 23.4952 165.134 22.6552C164.434 21.8152 163.478 21.3952 162.264 21.3952C161.051 21.3952 160.083 21.8152 159.359 22.6552C158.659 23.4952 158.309 24.8135 158.309 26.6102C158.309 28.4069 158.659 29.7369 159.359 30.6002C160.083 31.4635 161.051 31.8952 162.264 31.8952ZM201.091 35.8852C199.551 35.8852 198.198 35.5119 197.031 34.7652C195.865 34.0185 194.955 32.9569 194.301 31.5802C193.648 30.2035 193.321 28.5469 193.321 26.6102C193.321 24.6969 193.648 23.0519 194.301 21.6752C194.955 20.2985 195.865 19.2485 197.031 18.5252C198.198 17.7785 199.551 17.4052 201.091 17.4052C202.515 17.4052 203.786 17.7552 204.906 18.4552C206.05 19.1319 206.796 20.0535 207.146 21.2202H206.761L207.181 17.7552H212.256C212.186 18.5252 212.116 19.3069 212.046 20.1002C212 20.8702 211.976 21.6285 211.976 22.3752V35.5002H206.726L206.691 32.1752H207.111C206.738 33.2952 205.991 34.1935 204.871 34.8702C203.751 35.5469 202.491 35.8852 201.091 35.8852ZM202.701 31.8952C203.915 31.8952 204.895 31.4635 205.641 30.6002C206.388 29.7369 206.761 28.4069 206.761 26.6102C206.761 24.8135 206.388 23.4952 205.641 22.6552C204.895 21.8152 203.915 21.3952 202.701 21.3952C201.488 21.3952 200.508 21.8152 199.761 22.6552C199.015 23.4952 198.641 24.8135 198.641 26.6102C198.641 28.4069 199.003 29.7369 199.726 30.6002C200.473 31.4635 201.465 31.8952 202.701 31.8952ZM216.276 35.5002V22.4452C216.276 21.6752 216.252 20.8935 216.206 20.1002C216.182 19.3069 216.124 18.5252 216.031 17.7552H221.106L221.701 22.9352H220.896C221.129 21.6752 221.502 20.6369 222.016 19.8202C222.552 19.0035 223.206 18.3969 223.976 18.0002C224.769 17.6035 225.667 17.4052 226.671 17.4052C227.114 17.4052 227.464 17.4285 227.721 17.4752C227.977 17.4985 228.234 17.5569 228.491 17.6502L228.456 22.3052C227.966 22.0952 227.546 21.9669 227.196 21.9202C226.869 21.8502 226.449 21.8152 225.936 21.8152C224.956 21.8152 224.139 22.0019 223.486 22.3752C222.856 22.7485 222.377 23.2969 222.051 24.0202C221.747 24.7435 221.596 25.6185 221.596 26.6452V35.5002H216.276Z" fill="white"/>
<path d="M174.987 35.5002V9.74023H180.272V35.5002H174.987ZM184.592 35.5002V9.74023H189.877V35.5002H184.592Z" fill="#FFB342"/>
<path d="M39.0644 29.598H44V25.5H29.733C29.4735 29.7521 25.9028 33.126 21.5381 33.126C17.1734 33.126 13.6027 29.7521 13.3432 25.5H-1.49006e-05L-1.52588e-05 29.598H4.07406C4.29203 30.4402 4.57747 31.267 4.92001 32.0784C5.30925 32.9925 5.77116 33.8655 6.30572 34.6923L2.74025 38.2203L8.35573 43.7768L11.9264 40.2437C12.7516 40.7624 13.6235 41.2143 14.5317 41.5943C15.5541 42.0205 16.6077 42.3543 17.682 42.5854V47.5H25.6329V42.5443C26.645 42.3133 27.6362 41.9949 28.6015 41.5943C29.5773 41.1886 30.5062 40.7007 31.3833 40.1359L34.8917 43.6074L40.5124 38.0457L36.9469 34.5177C37.4348 33.7423 37.8552 32.9258 38.2184 32.0784C38.561 31.267 38.8464 30.4402 39.0644 29.598Z" fill="white"/>
<path d="M36.9436 7.67054V15.9455C36.9436 16.5071 36.4796 16.9627 35.9078 16.9627H35.1741C34.6022 16.9627 34.1383 16.5071 34.1383 15.9455V5.51968C32.0127 4.13169 29.6282 3.09334 27.0711 2.5V16.8567C27.0711 17.4183 26.6071 17.8739 26.0353 17.8739H17.9431C17.3712 17.8739 16.9073 17.4183 16.9073 16.8567V2.5C14.3825 3.09334 11.998 4.14228 9.87248 5.51968V15.9455C9.87248 16.5071 9.40853 16.9627 8.83668 16.9627H8.10299C7.53114 16.9627 7.06718 16.5071 7.06718 15.9455V7.67054C2.72977 11.612 0 17.2381 0 23.5H44C44.0108 17.2381 41.2918 11.612 36.9436 7.67054Z" fill="#FFB342"/>
<path d="M25 15.1436C25 15.6171 24.653 16 24.2164 16H19.7836C19.3582 16 19 15.6171 19 15.1436V0.856423C19 0.382871 19.347 0 19.7836 0H24.2164C24.6418 0 25 0.382871 25 0.856423V15.1436Z" fill="#FFB342"/>
</g>
<defs>
<clipPath id="clip0_1_977">
<rect width="242" height="48" fill="white"/>
</clipPath>
</defs>
</svg>
