<svg width="155" height="35" viewBox="0 0 155 35" fill="none" xmlns="http://www.w3.org/2000/svg">
<path d="M20.932 25.0198C20.524 25.2838 19.936 25.6078 19.168 25.9918C18.424 26.3518 17.536 26.6638 16.504 26.9278C15.496 27.1918 14.392 27.3118 13.192 27.2878C11.152 27.2638 9.32801 26.9038 7.72001 26.2078C6.11201 25.5118 4.73201 24.5638 3.58001 23.3638C2.45201 22.1398 1.58801 20.7478 0.98801 19.1878C0.38801 17.6038 0.0880127 15.9238 0.0880127 14.1478C0.0880127 12.1798 0.40001 10.3798 1.02401 8.74782C1.67201 7.09181 2.57201 5.66382 3.72401 4.46382C4.87601 3.23982 6.23201 2.29182 7.79201 1.61982C9.37601 0.947816 11.104 0.611816 12.976 0.611816C14.56 0.611816 16 0.827816 17.296 1.25982C18.592 1.69182 19.684 2.18382 20.572 2.73582L19.06 6.26382C18.364 5.78382 17.5 5.32782 16.468 4.89582C15.46 4.46382 14.332 4.24782 13.084 4.24782C11.452 4.24782 9.94001 4.67982 8.54801 5.54382C7.18001 6.40782 6.07601 7.57182 5.23601 9.03582C4.42001 10.4998 4.01201 12.1438 4.01201 13.9678C4.01201 15.8158 4.38401 17.4718 5.12801 18.9358C5.89601 20.3998 6.97601 21.5518 8.36801 22.3918C9.76001 23.2318 11.392 23.6518 13.264 23.6518C14.608 23.6518 15.784 23.4478 16.792 23.0398C17.824 22.6318 18.664 22.1638 19.312 21.6358L20.932 25.0198ZM34.8401 27.3598C33.7361 27.3598 32.6681 27.1198 31.6361 26.6398C30.6281 26.1358 29.8361 25.4518 29.2601 24.5878L29.4761 23.4718V34.2358H25.8401V11.6998H28.9721L29.4761 15.4078L29.1161 14.3638C29.8361 13.4758 30.7361 12.7558 31.8161 12.2038C32.9201 11.6278 34.1561 11.3398 35.5241 11.3398C36.9401 11.3398 38.2121 11.6758 39.3401 12.3478C40.4681 13.0198 41.3561 13.9678 42.0041 15.1918C42.6521 16.3918 42.9761 17.8078 42.9761 19.4398C42.9761 21.0718 42.6161 22.4878 41.8961 23.6878C41.2001 24.8638 40.2401 25.7758 39.0161 26.4238C37.7921 27.0478 36.4001 27.3598 34.8401 27.3598ZM34.1201 24.4798C35.0561 24.4798 35.9081 24.2638 36.6761 23.8318C37.4681 23.3998 38.0921 22.8118 38.5481 22.0678C39.0281 21.2998 39.2681 20.4358 39.2681 19.4758C39.2681 18.4918 39.0521 17.6158 38.6201 16.8478C38.1881 16.0798 37.6001 15.4798 36.8561 15.0478C36.1121 14.6158 35.2841 14.3998 34.3721 14.3998C33.1241 14.3998 32.0681 14.7358 31.2041 15.4078C30.3641 16.0798 29.7881 16.9678 29.4761 18.0718V20.7718C29.6681 21.8518 30.1961 22.7398 31.0601 23.4358C31.9241 24.1318 32.9441 24.4798 34.1201 24.4798ZM50.632 11.9518L50.956 15.2278L50.776 14.9398C51.328 13.8118 52.108 12.9358 53.116 12.3118C54.148 11.6638 55.324 11.3398 56.644 11.3398C57.892 11.3398 58.936 11.6278 59.776 12.2038C60.616 12.7798 61.132 13.5958 61.324 14.6518L61.144 14.7958C61.744 13.7158 62.548 12.8758 63.556 12.2758C64.564 11.6518 65.62 11.3398 66.724 11.3398C68.212 11.3398 69.388 11.7598 70.252 12.5998C71.116 13.4158 71.56 14.4958 71.584 15.8398V26.9998H67.984V17.2078C67.96 16.4398 67.78 15.8038 67.444 15.2998C67.132 14.7958 66.556 14.5198 65.716 14.4718C64.852 14.4718 64.084 14.7358 63.412 15.2638C62.764 15.7918 62.248 16.4758 61.864 17.3158C61.504 18.1558 61.312 19.0558 61.288 20.0158V26.9998H57.652V17.2078C57.628 16.4398 57.436 15.8038 57.076 15.2998C56.74 14.7958 56.152 14.5198 55.312 14.4718C54.472 14.4718 53.716 14.7358 53.044 15.2638C52.396 15.7918 51.892 16.4878 51.532 17.3518C51.172 18.1918 50.992 19.0918 50.992 20.0518V26.9998H47.356V11.9518H50.632ZM86.274 27.3598C85.17 27.3598 84.102 27.1198 83.07 26.6398C82.062 26.1358 81.27 25.4518 80.694 24.5878L80.91 23.4718V34.2358H77.274V11.6998H80.406L80.91 15.4078L80.55 14.3638C81.27 13.4758 82.17 12.7558 83.25 12.2038C84.354 11.6278 85.59 11.3398 86.958 11.3398C88.374 11.3398 89.646 11.6758 90.774 12.3478C91.902 13.0198 92.79 13.9678 93.438 15.1918C94.086 16.3918 94.41 17.8078 94.41 19.4398C94.41 21.0718 94.05 22.4878 93.33 23.6878C92.634 24.8638 91.674 25.7758 90.45 26.4238C89.226 27.0478 87.834 27.3598 86.274 27.3598ZM85.554 24.4798C86.49 24.4798 87.342 24.2638 88.11 23.8318C88.902 23.3998 89.526 22.8118 89.982 22.0678C90.462 21.2998 90.702 20.4358 90.702 19.4758C90.702 18.4918 90.486 17.6158 90.054 16.8478C89.622 16.0798 89.034 15.4798 88.29 15.0478C87.546 14.6158 86.718 14.3998 85.806 14.3998C84.558 14.3998 83.502 14.7358 82.638 15.4078C81.798 16.0798 81.222 16.9678 80.91 18.0718V20.7718C81.102 21.8518 81.63 22.7398 82.494 23.4358C83.358 24.1318 84.378 24.4798 85.554 24.4798ZM105.089 27.3598C103.673 27.3598 102.389 27.0598 101.237 26.4598C100.085 25.8598 99.173 24.9838 98.501 23.8318C97.829 22.6558 97.493 21.2038 97.493 19.4758C97.493 17.7958 97.841 16.3558 98.537 15.1558C99.257 13.9318 100.193 12.9958 101.345 12.3478C102.521 11.6758 103.793 11.3398 105.161 11.3398C106.601 11.3398 107.789 11.6398 108.725 12.2398C109.661 12.8398 110.381 13.5598 110.885 14.3998L110.669 14.9758L111.029 11.9518H114.377V26.9998H110.741V23.1838L111.101 24.0838C111.005 24.2758 110.801 24.5518 110.489 24.9118C110.177 25.2718 109.769 25.6438 109.265 26.0278C108.761 26.3878 108.149 26.6998 107.429 26.9638C106.733 27.2278 105.953 27.3598 105.089 27.3598ZM106.061 24.3718C107.261 24.3718 108.269 24.0598 109.085 23.4358C109.925 22.7878 110.477 21.9118 110.741 20.8078V17.7118C110.453 16.7278 109.865 15.9118 108.977 15.2638C108.113 14.6158 107.105 14.2918 105.953 14.2918C105.089 14.2918 104.297 14.5078 103.577 14.9398C102.857 15.3478 102.281 15.9358 101.849 16.7038C101.417 17.4478 101.201 18.3118 101.201 19.2958C101.201 20.2558 101.417 21.1198 101.849 21.8878C102.305 22.6558 102.905 23.2678 103.649 23.7238C104.393 24.1558 105.197 24.3718 106.061 24.3718ZM123.335 11.9518L123.659 15.4438L123.515 14.9398C123.995 13.8598 124.763 12.9958 125.819 12.3478C126.899 11.6998 128.159 11.3758 129.599 11.3758C131.015 11.3758 132.179 11.7958 133.091 12.6358C134.003 13.4518 134.471 14.5318 134.495 15.8758V26.9998H130.859V17.1358C130.835 16.3678 130.607 15.7438 130.175 15.2638C129.743 14.7598 129.071 14.4958 128.159 14.4718C126.887 14.4718 125.819 14.9998 124.955 16.0558C124.115 17.1118 123.695 18.4678 123.695 20.1238V26.9998H120.059V11.9518H123.335ZM140.972 34.2358L150.872 11.9518H154.22L144.5 34.2358H140.972ZM144.716 27.1078L137.48 11.9518H141.548L147.56 25.2718L144.716 27.1078Z" fill="#1C2752" fill-opacity="0.4"/>
</svg>
