<svg width="92" height="29" viewBox="0 0 92 29" fill="none" xmlns="http://www.w3.org/2000/svg">
<path d="M0.664001 28.0001V1.91507H12.689C15.5503 1.91507 17.758 2.51937 19.312 3.72807C20.866 4.93677 21.643 6.58937 21.643 8.68607C21.643 10.2401 21.1743 11.5598 20.237 12.6451C19.3243 13.7304 18.0663 14.4581 16.463 14.8281V14.2361C18.3377 14.5568 19.7807 15.2721 20.792 16.3821C21.828 17.4674 22.346 18.8858 22.346 20.6371C22.346 22.9558 21.5197 24.7688 19.867 26.0761C18.239 27.3588 15.982 28.0001 13.096 28.0001H0.664001ZM6.177 23.7081H12.393C13.8237 23.7081 14.9213 23.4368 15.686 22.8941C16.4507 22.3514 16.833 21.4881 16.833 20.3041C16.833 19.0954 16.4507 18.2321 15.686 17.7141C14.9213 17.1714 13.8237 16.9001 12.393 16.9001H6.177V23.7081ZM6.177 12.6451H11.653C13.1577 12.6451 14.2677 12.3738 14.983 11.8311C15.6983 11.2884 16.056 10.4744 16.056 9.38907C16.056 8.32837 15.6983 7.52677 14.983 6.98407C14.2677 6.44137 13.1577 6.17007 11.653 6.17007H6.177V12.6451ZM26.0197 28.0001V14.1991C26.0197 13.3851 25.995 12.5588 25.9457 11.7201C25.921 10.8814 25.8594 10.0551 25.7607 9.24107H31.1257L31.7547 14.7171H30.9037C31.1504 13.3851 31.545 12.2874 32.0877 11.4241C32.655 10.5608 33.3457 9.91937 34.1597 9.50007C34.9984 9.08077 35.948 8.87107 37.0087 8.87107C37.4774 8.87107 37.8474 8.89577 38.1187 8.94507C38.39 8.96977 38.6614 9.03137 38.9327 9.13007L38.8957 14.0511C38.3777 13.8291 37.9337 13.6934 37.5637 13.6441C37.2184 13.5701 36.7744 13.5331 36.2317 13.5331C35.1957 13.5331 34.3324 13.7304 33.6417 14.1251C32.9757 14.5198 32.47 15.0994 32.1247 15.8641C31.804 16.6288 31.6437 17.5538 31.6437 18.6391V28.0001H26.0197ZM41.2686 28.0001V9.24107H46.856V28.0001H41.2686ZM41.0466 6.17007V0.953067H47.041V6.17007H41.0466ZM58.785 28.4071C57.157 28.4071 55.714 28.0124 54.456 27.2231C53.223 26.4338 52.248 25.3114 51.533 23.8561C50.842 22.4008 50.497 20.6494 50.497 18.6021C50.497 16.5794 50.842 14.8404 51.533 13.3851C52.224 11.9298 53.198 10.8198 54.456 10.0551C55.714 9.26577 57.157 8.87107 58.785 8.87107C60.265 8.87107 61.585 9.22877 62.744 9.94407C63.928 10.6348 64.717 11.5721 65.112 12.7561H64.631V0.768066H70.218V28.0001H64.705V24.3371H65.186C64.791 25.5704 64.002 26.5571 62.818 27.2971C61.634 28.0371 60.29 28.4071 58.785 28.4071ZM60.45 24.1891C61.733 24.1891 62.769 23.7328 63.558 22.8201C64.347 21.9074 64.742 20.5014 64.742 18.6021C64.742 16.7028 64.347 15.3091 63.558 14.4211C62.769 13.5331 61.733 13.0891 60.45 13.0891C59.167 13.0891 58.119 13.5331 57.305 14.4211C56.516 15.3091 56.121 16.7028 56.121 18.6021C56.121 20.5014 56.516 21.9074 57.305 22.8201C58.119 23.7328 59.167 24.1891 60.45 24.1891ZM84.235 28.4071C80.979 28.4071 78.438 27.5314 76.613 25.7801C74.788 24.0288 73.875 21.6484 73.875 18.6391C73.875 16.6904 74.257 14.9884 75.022 13.5331C75.811 12.0778 76.897 10.9431 78.278 10.1291C79.684 9.29037 81.324 8.87107 83.199 8.87107C85.049 8.87107 86.591 9.26577 87.824 10.0551C89.082 10.8444 90.019 11.9544 90.636 13.3851C91.277 14.7911 91.598 16.4314 91.598 18.3061V19.6011H78.463V16.8261H87.528L86.899 17.3441C86.899 15.7901 86.578 14.6184 85.937 13.8291C85.32 13.0151 84.42 12.6081 83.236 12.6081C81.929 12.6081 80.917 13.0891 80.202 14.0511C79.511 15.0131 79.166 16.3944 79.166 18.1951V18.7871C79.166 20.6124 79.61 21.9691 80.498 22.8571C81.411 23.7451 82.718 24.1891 84.42 24.1891C85.431 24.1891 86.381 24.0658 87.269 23.8191C88.182 23.5478 89.045 23.1284 89.859 22.5611L91.413 26.2611C90.476 26.9518 89.39 27.4821 88.157 27.8521C86.948 28.2221 85.641 28.4071 84.235 28.4071Z" fill="#1C2752" fill-opacity="0.4"/>
</svg>
