<svg width="130" height="33" viewBox="0 0 130 33" fill="none" xmlns="http://www.w3.org/2000/svg">
<path d="M0.992004 3.34407C1.568 3.36537 2.33601 3.38678 3.29601 3.40808C4.25601 3.42938 5.216 3.44007 6.176 3.44007C7.2213 3.44007 8.224 3.42938 9.184 3.40808C10.1653 3.38678 10.8587 3.37607 11.264 3.37607C14.0373 3.37607 16.1067 3.84537 17.472 4.78407C18.8587 5.72277 19.552 6.92807 19.552 8.40007C19.552 9.14677 19.3067 9.91477 18.816 10.7041C18.3253 11.4721 17.568 12.1654 16.544 12.7841C15.5413 13.3814 14.2507 13.7974 12.672 14.0321V14.0961C14.7627 14.2241 16.4267 14.5868 17.664 15.1841C18.9227 15.7601 19.8293 16.4534 20.384 17.2641C20.9387 18.0748 21.216 18.9174 21.216 19.7921C21.216 21.1788 20.8427 22.3308 20.096 23.2481C19.3707 24.1654 18.3147 24.8588 16.928 25.3281C15.5627 25.7761 13.92 26.0001 12 26.0001C11.488 26.0001 10.7413 25.9894 9.76 25.9681C8.7787 25.9254 7.60531 25.9041 6.24001 25.9041C5.23731 25.9041 4.25601 25.9148 3.29601 25.9361C2.33601 25.9361 1.568 25.9574 0.992004 26.0001V25.3601C1.6533 25.3174 2.144 25.2321 2.464 25.1041C2.8053 24.9761 3.02931 24.7201 3.13601 24.3361C3.26401 23.9521 3.328 23.3761 3.328 22.6081V6.73607C3.328 5.94677 3.26401 5.37077 3.13601 5.00807C3.02931 4.62407 2.8053 4.36807 2.464 4.24007C2.144 4.09077 1.6533 4.00537 0.992004 3.98407V3.34407ZM10.976 3.98407C10.208 3.98407 9.7067 4.16537 9.472 4.52807C9.2373 4.89077 9.12 5.62677 9.12 6.73607V22.6081C9.12 23.3548 9.1733 23.9201 9.28 24.3041C9.408 24.6881 9.6213 24.9441 9.92 25.0721C10.2187 25.2001 10.6667 25.2641 11.264 25.2641C12.6293 25.2641 13.6213 24.7841 14.24 23.8241C14.88 22.8428 15.2 21.4561 15.2 19.6641C15.2 18.0214 14.7947 16.7521 13.984 15.8561C13.1947 14.9601 11.872 14.5121 10.016 14.5121H7.488C7.488 14.5121 7.488 14.4268 7.488 14.2561C7.488 14.0641 7.488 13.9681 7.488 13.9681H10.24C11.1573 13.9681 11.8613 13.7334 12.352 13.2641C12.8427 12.7734 13.184 12.1334 13.376 11.3441C13.568 10.5334 13.664 9.66938 13.664 8.75208C13.664 7.17338 13.4507 5.98938 13.024 5.20008C12.6187 4.38938 11.936 3.98407 10.976 3.98407ZM39.1513 9.07207V22.5121C39.1513 23.4721 39.2899 24.1868 39.5673 24.6561C39.8659 25.1041 40.3673 25.3281 41.0713 25.3281V26.0001C40.4099 25.9361 39.7486 25.9041 39.0873 25.9041C38.1059 25.9041 37.1886 25.9361 36.3353 26.0001C35.5033 26.0641 34.7139 26.1814 33.9673 26.3521V23.7601C33.4553 24.7201 32.7513 25.4134 31.8553 25.8401C30.9806 26.2454 29.9779 26.4481 28.8473 26.4481C27.9086 26.4481 27.1513 26.3308 26.5753 26.0961C26.0206 25.8614 25.5939 25.5521 25.2953 25.1681C24.9539 24.7841 24.7086 24.2721 24.5593 23.6321C24.4099 22.9708 24.3353 22.1068 24.3353 21.0401V12.9121C24.3353 11.9521 24.1966 11.2481 23.9193 10.8001C23.6419 10.3308 23.1406 10.0961 22.4153 10.0961V9.42407C23.0979 9.48807 23.7593 9.52007 24.3993 9.52007C25.3806 9.52007 26.2979 9.48807 27.1513 9.42407C28.0046 9.33877 28.7939 9.22137 29.5193 9.07207V22.5761C29.5193 23.0668 29.5726 23.4828 29.6793 23.8241C29.7859 24.1654 29.9673 24.4321 30.2233 24.6241C30.4793 24.8161 30.8206 24.9121 31.2473 24.9121C31.7379 24.9121 32.1859 24.7841 32.5913 24.5281C32.9966 24.2721 33.3273 23.9201 33.5833 23.4721C33.8393 23.0028 33.9673 22.4801 33.9673 21.9041V12.9121C33.9673 11.9521 33.8286 11.2481 33.5513 10.8001C33.2739 10.3308 32.7726 10.0961 32.0473 10.0961V9.42407C32.7299 9.48807 33.3913 9.52007 34.0313 9.52007C35.0126 9.52007 35.9299 9.48807 36.7833 9.42407C37.6366 9.33877 38.4259 9.22137 39.1513 9.07207ZM46.7115 1.07207C47.714 1.07207 48.493 1.29607 49.048 1.74407C49.624 2.19207 49.911 2.84277 49.911 3.69607C49.911 4.54937 49.624 5.20008 49.048 5.64808C48.493 6.09608 47.714 6.32007 46.7115 6.32007C45.7088 6.32007 44.9195 6.09608 44.3435 5.64808C43.7888 5.20008 43.5115 4.54937 43.5115 3.69607C43.5115 2.84277 43.7888 2.19207 44.3435 1.74407C44.9195 1.29607 45.7088 1.07207 46.7115 1.07207ZM49.528 9.07207V23.0241C49.528 23.9201 49.666 24.5281 49.944 24.8481C50.242 25.1681 50.744 25.3281 51.448 25.3281V26.0001C51.021 25.9788 50.392 25.9574 49.56 25.9361C48.728 25.8934 47.885 25.8721 47.032 25.8721C46.1782 25.8721 45.3035 25.8934 44.4075 25.9361C43.5328 25.9574 42.8715 25.9788 42.4235 26.0001V25.3281C43.1275 25.3281 43.6182 25.1681 43.8955 24.8481C44.1942 24.5281 44.3435 23.9201 44.3435 23.0241V12.9121C44.3435 11.9521 44.2048 11.2481 43.9275 10.8001C43.6502 10.3308 43.1488 10.0961 42.4235 10.0961V9.42407C43.1062 9.48807 43.7675 9.52007 44.4075 9.52007C45.3675 9.52007 46.2742 9.48807 47.128 9.42407C48.002 9.33877 48.802 9.22137 49.528 9.07207ZM59.743 0.976074V23.0241C59.743 23.9201 59.882 24.5281 60.159 24.8481C60.458 25.1681 60.959 25.3281 61.663 25.3281V26.0001C61.258 25.9788 60.639 25.9574 59.807 25.9361C58.975 25.8934 58.122 25.8721 57.247 25.8721C56.394 25.8721 55.519 25.8934 54.623 25.9361C53.749 25.9574 53.087 25.9788 52.639 26.0001V25.3281C53.343 25.3281 53.834 25.1681 54.111 24.8481C54.41 24.5281 54.559 23.9201 54.559 23.0241V4.78407C54.559 3.84537 54.421 3.15207 54.143 2.70407C53.887 2.23477 53.386 2.00007 52.639 2.00007V1.32807C53.322 1.39207 53.983 1.42407 54.623 1.42407C55.605 1.42407 56.522 1.39207 57.375 1.32807C58.229 1.24277 59.018 1.12537 59.743 0.976074ZM78.801 0.976074V22.4801C78.801 23.4401 78.939 24.1548 79.217 24.6241C79.515 25.0721 80.017 25.2961 80.721 25.2961V25.9681C80.059 25.9041 79.398 25.8721 78.737 25.8721C77.777 25.8721 76.87 25.9041 76.017 25.9681C75.163 26.0321 74.363 26.1494 73.617 26.3201V4.81607C73.617 3.85607 73.478 3.15207 73.201 2.70407C72.945 2.23477 72.443 2.00007 71.697 2.00007V1.32807C72.379 1.39207 73.041 1.42407 73.681 1.42407C74.662 1.42407 75.579 1.39207 76.433 1.32807C77.286 1.24277 78.075 1.12537 78.801 0.976074ZM70.193 8.97607C71.131 8.97607 71.942 9.11477 72.625 9.39207C73.307 9.64807 73.873 10.0854 74.321 10.7041L73.937 11.0241C73.659 10.6614 73.318 10.3948 72.913 10.2241C72.529 10.0534 72.123 9.96807 71.697 9.96807C70.673 9.96807 69.873 10.6081 69.297 11.8881C68.742 13.1468 68.465 15.0881 68.465 17.7121C68.465 19.5468 68.571 20.9974 68.785 22.0641C69.019 23.1094 69.329 23.8454 69.713 24.2721C70.118 24.6988 70.566 24.9121 71.057 24.9121C71.718 24.9121 72.305 24.6668 72.817 24.1761C73.35 23.6641 73.627 22.9921 73.649 22.1601L73.745 23.5041C73.361 24.4854 72.827 25.2214 72.145 25.7121C71.483 26.2028 70.63 26.4481 69.585 26.4481C68.347 26.4481 67.227 26.1388 66.225 25.5201C65.243 24.9014 64.465 23.9521 63.889 22.6721C63.334 21.3708 63.057 19.6854 63.057 17.6161C63.057 15.6748 63.355 14.0748 63.953 12.8161C64.571 11.5361 65.414 10.5761 66.481 9.93608C67.569 9.29607 68.806 8.97607 70.193 8.97607ZM86.274 1.07207C87.277 1.07207 88.055 1.29607 88.61 1.74407C89.186 2.19207 89.474 2.84277 89.474 3.69607C89.474 4.54937 89.186 5.20008 88.61 5.64808C88.055 6.09608 87.277 6.32007 86.274 6.32007C85.271 6.32007 84.482 6.09608 83.906 5.64808C83.351 5.20008 83.074 4.54937 83.074 3.69607C83.074 2.84277 83.351 2.19207 83.906 1.74407C84.482 1.29607 85.271 1.07207 86.274 1.07207ZM89.09 9.07207V23.0241C89.09 23.9201 89.229 24.5281 89.506 24.8481C89.805 25.1681 90.306 25.3281 91.01 25.3281V26.0001C90.583 25.9788 89.954 25.9574 89.122 25.9361C88.29 25.8934 87.447 25.8721 86.594 25.8721C85.741 25.8721 84.866 25.8934 83.97 25.9361C83.095 25.9574 82.434 25.9788 81.986 26.0001V25.3281C82.69 25.3281 83.181 25.1681 83.458 24.8481C83.757 24.5281 83.906 23.9201 83.906 23.0241V12.9121C83.906 11.9521 83.767 11.2481 83.49 10.8001C83.213 10.3308 82.711 10.0961 81.986 10.0961V9.42407C82.669 9.48807 83.33 9.52007 83.97 9.52007C84.93 9.52007 85.837 9.48807 86.69 9.42407C87.565 9.33877 88.365 9.22137 89.09 9.07207ZM104.586 8.97607C105.524 8.97607 106.271 9.09337 106.826 9.32807C107.402 9.56277 107.839 9.86138 108.138 10.2241C108.479 10.6294 108.724 11.1521 108.874 11.7921C109.044 12.4321 109.13 13.2961 109.13 14.3841V23.0241C109.13 23.9201 109.268 24.5281 109.546 24.8481C109.844 25.1681 110.346 25.3281 111.05 25.3281V26.0001C110.623 25.9788 109.983 25.9574 109.13 25.9361C108.298 25.8934 107.487 25.8721 106.698 25.8721C105.823 25.8721 104.98 25.8934 104.17 25.9361C103.359 25.9574 102.751 25.9788 102.346 26.0001V25.3281C102.943 25.3281 103.359 25.1681 103.594 24.8481C103.828 24.5281 103.946 23.9201 103.946 23.0241V12.8481C103.946 12.3574 103.892 11.9414 103.786 11.6001C103.679 11.2374 103.498 10.9708 103.242 10.8001C102.986 10.6081 102.623 10.5121 102.154 10.5121C101.663 10.5121 101.204 10.6401 100.778 10.8961C100.372 11.1521 100.042 11.5148 99.786 11.9841C99.551 12.4321 99.434 12.9441 99.434 13.5201V23.0241C99.434 23.9201 99.551 24.5281 99.786 24.8481C100.02 25.1681 100.436 25.3281 101.034 25.3281V26.0001C100.628 25.9788 100.042 25.9574 99.274 25.9361C98.506 25.8934 97.727 25.8721 96.938 25.8721C96.063 25.8721 95.188 25.8934 94.314 25.9361C93.439 25.9574 92.778 25.9788 92.33 26.0001V25.3281C93.034 25.3281 93.524 25.1681 93.802 24.8481C94.1 24.5281 94.25 23.9201 94.25 23.0241V12.9121C94.25 11.9521 94.111 11.2481 93.834 10.8001C93.556 10.3308 93.055 10.0961 92.33 10.0961V9.42407C93.012 9.48807 93.674 9.52007 94.314 9.52007C95.274 9.52007 96.18 9.48807 97.034 9.42407C97.908 9.33877 98.708 9.22137 99.434 9.07207V11.6641C99.946 10.6828 100.639 9.98937 101.514 9.58407C102.41 9.17877 103.434 8.97607 104.586 8.97607ZM118.227 32.0161C116.84 32.0161 115.624 31.8988 114.579 31.6641C113.533 31.4508 112.723 31.1201 112.147 30.6721C111.571 30.2454 111.283 29.7228 111.283 29.1041C111.283 28.4641 111.581 27.8774 112.179 27.3441C112.776 26.8321 113.693 26.4268 114.931 26.1281L115.219 26.6401C114.856 27.0028 114.6 27.3548 114.451 27.6961C114.301 28.0588 114.227 28.4108 114.227 28.7521C114.227 29.6268 114.621 30.2988 115.411 30.7681C116.2 31.2374 117.288 31.4721 118.675 31.4721C119.635 31.4721 120.467 31.3334 121.171 31.0561C121.875 30.8001 122.419 30.4268 122.803 29.9361C123.187 29.4454 123.379 28.8694 123.379 28.2081C123.379 27.5894 123.144 27.0668 122.675 26.6401C122.227 26.2134 121.309 26.0001 119.923 26.0001H118.067C117.149 26.0001 116.36 25.8828 115.699 25.6481C115.037 25.4134 114.525 25.0828 114.163 24.6561C113.821 24.2294 113.651 23.6961 113.651 23.0561C113.651 22.0961 114.024 21.2854 114.771 20.6241C115.517 19.9414 116.552 19.3121 117.875 18.7361L118.163 18.9921C117.843 19.1841 117.533 19.4081 117.235 19.6641C116.957 19.9201 116.819 20.2614 116.819 20.6881C116.819 21.3708 117.224 21.7121 118.035 21.7121H121.331C122.611 21.7121 123.741 21.8614 124.723 22.1601C125.704 22.4374 126.472 22.9068 127.027 23.5681C127.603 24.2081 127.891 25.0508 127.891 26.0961C127.891 27.1628 127.549 28.1441 126.867 29.0401C126.184 29.9361 125.128 30.6508 123.699 31.1841C122.291 31.7388 120.467 32.0161 118.227 32.0161ZM118.643 19.1841C117.363 19.1841 116.221 19.0028 115.219 18.6401C114.237 18.2774 113.459 17.7228 112.883 16.9761C112.307 16.2081 112.019 15.2374 112.019 14.0641C112.019 12.8908 112.307 11.9308 112.883 11.1841C113.459 10.4374 114.237 9.88277 115.219 9.52007C116.221 9.15738 117.363 8.97607 118.643 8.97607C119.901 8.97607 121.032 9.15738 122.035 9.52007C123.037 9.88277 123.827 10.4374 124.403 11.1841C124.979 11.9308 125.267 12.8908 125.267 14.0641C125.267 15.2374 124.979 16.2081 124.403 16.9761C123.827 17.7228 123.037 18.2774 122.035 18.6401C121.032 19.0028 119.901 19.1841 118.643 19.1841ZM118.643 18.6081C119.112 18.6081 119.485 18.2774 119.763 17.6161C120.061 16.9548 120.211 15.7708 120.211 14.0641C120.211 12.3574 120.061 11.1841 119.763 10.5441C119.485 9.88278 119.112 9.55207 118.643 9.55207C118.152 9.55207 117.768 9.88278 117.491 10.5441C117.213 11.1841 117.075 12.3574 117.075 14.0641C117.075 15.7708 117.213 16.9548 117.491 17.6161C117.768 18.2774 118.152 18.6081 118.643 18.6081ZM123.731 11.7601L123.059 11.5361C123.4 10.6614 123.923 9.95737 124.627 9.42407C125.352 8.86937 126.141 8.59207 126.995 8.59207C127.699 8.59207 128.221 8.78407 128.563 9.16807C128.925 9.55207 129.107 10.0534 129.107 10.6721C129.107 11.2908 128.936 11.7708 128.595 12.1121C128.275 12.4321 127.891 12.5921 127.443 12.5921C127.059 12.5921 126.707 12.4641 126.387 12.2081C126.067 11.9308 125.885 11.5254 125.843 10.9921C125.8 10.4374 125.992 9.74407 126.419 8.91208L126.611 9.10407C125.821 9.38137 125.213 9.72277 124.787 10.1281C124.381 10.5334 124.029 11.0774 123.731 11.7601Z" fill="#1C2752" fill-opacity="0.4"/>
</svg>
