<svg width="117" height="35" viewBox="0 0 117 35" fill="none" xmlns="http://www.w3.org/2000/svg">
<path d="M9.4795 10.2896V2.25047H7.39791C6.53661 2.25047 5.7949 2.32227 5.1729 2.46577C4.5508 2.59337 4.04041 2.83267 3.64161 3.18357C3.24281 3.51857 2.94781 3.98107 2.75631 4.57127C2.56491 5.16147 2.4692 5.90317 2.4692 6.79637V28.186C2.4692 28.856 2.533 29.478 2.6606 30.0522C2.8042 30.6105 3.01951 31.105 3.30661 31.5356C3.60971 31.9504 3.9925 32.2773 4.4551 32.5166C4.9336 32.7559 5.5078 32.8755 6.1777 32.8755C7.2783 32.8755 8.0998 32.5565 8.6421 31.9185C9.2004 31.2804 9.4795 30.3633 9.4795 29.167V24.8364H11.2739V29.1909C11.2739 30.8338 10.8512 32.1258 10.0059 33.0669C9.1605 34.008 7.9004 34.4785 6.22561 34.4785C5.22071 34.4785 4.35941 34.311 3.64161 33.9761C2.93981 33.6411 2.3656 33.1945 1.9189 32.6362C1.4883 32.062 1.1693 31.3921 0.961903 30.6265C0.770503 29.8608 0.674805 29.0474 0.674805 28.186V7.60987C0.674805 7.08347 0.682804 6.54917 0.698704 6.00677C0.714704 5.44857 0.778502 4.91417 0.890102 4.40377C1.0177 3.87737 1.2012 3.39097 1.4404 2.94427C1.6956 2.48177 2.04651 2.08297 2.49321 1.74797C2.95571 1.41307 3.5379 1.14987 4.2397 0.958471C4.9575 0.751071 5.82681 0.647471 6.84771 0.647471H11.2739V10.2896H9.4795ZM22.0884 29.6455C22.0884 30.3473 22.0007 30.9933 21.8252 31.5835C21.6497 32.1737 21.3866 32.6841 21.0356 33.1147C20.6847 33.5454 20.2461 33.8804 19.7197 34.1196C19.2093 34.3589 18.6112 34.4785 17.9253 34.4785C17.2394 34.4785 16.6333 34.3669 16.1069 34.1436C15.5965 33.9362 15.1659 33.6411 14.8149 33.2583C14.48 32.8595 14.2248 32.397 14.0493 31.8706C13.8739 31.3283 13.7861 30.7381 13.7861 30.1001V13.5195C13.7861 12.8975 13.8739 12.3232 14.0493 11.7969C14.2248 11.2546 14.488 10.792 14.8389 10.4092C15.1898 10.0104 15.6204 9.70737 16.1309 9.49997C16.6572 9.27667 17.2633 9.16497 17.9492 9.16497H22.0884V29.6455ZM15.5806 30.2437C15.5806 30.9774 15.7799 31.5994 16.1787 32.1099C16.5934 32.6203 17.1836 32.8755 17.9492 32.8755C18.6989 32.8755 19.2731 32.5884 19.6719 32.0142C20.0866 31.424 20.2939 30.7142 20.2939 29.8848V10.7681H17.9492C17.1836 10.7681 16.5934 11.0233 16.1787 11.5337C15.7799 12.0441 15.5806 12.6662 15.5806 13.3999V30.2437ZM33.6206 34H31.8262V13.8784C31.8262 13.1447 31.6188 12.5226 31.2041 12.0122C30.8053 11.5018 30.2311 11.2466 29.4814 11.2466H27.1128V34H25.3184V9.64357H29.4814C30.1514 9.64357 30.7415 9.75517 31.252 9.97847C31.7783 10.1859 32.217 10.4889 32.5679 10.8877C32.9188 11.2705 33.182 11.7331 33.3574 12.2754C33.5329 12.8018 33.6206 13.376 33.6206 13.998V34ZM36.1328 28.4731H37.927V30.2676C37.927 31.0013 38.127 31.6234 38.525 32.1338C38.94 32.6283 39.53 32.8755 40.296 32.8755C41.046 32.8755 41.62 32.6283 42.019 32.1338C42.433 31.6234 42.641 31.0013 42.641 30.2676V27.2529C42.641 26.7266 42.553 26.2401 42.377 25.7935C42.218 25.3309 41.995 24.8923 41.708 24.4775C41.436 24.0469 41.117 23.6401 40.75 23.2573C40.4 22.8745 40.041 22.4917 39.674 22.1089C39.227 21.6623 38.789 21.2077 38.358 20.7451C37.943 20.2826 37.568 19.7961 37.233 19.2856C36.8984 18.7593 36.6273 18.209 36.4199 17.6348C36.2285 17.0605 36.1328 16.4385 36.1328 15.7686V13.5435C36.1328 12.9054 36.2205 12.3232 36.396 11.7969C36.5715 11.2546 36.8346 10.792 37.186 10.4092C37.536 10.0104 37.967 9.70737 38.478 9.49997C39.004 9.27667 39.61 9.16497 40.296 9.16497C40.966 9.16497 41.556 9.27667 42.066 9.49997C42.593 9.70737 43.031 10.0104 43.382 10.4092C43.733 10.792 43.996 11.2546 44.172 11.7969C44.347 12.3232 44.435 12.9054 44.435 13.5435V15.5054H42.641V13.3999C42.641 12.6662 42.433 12.0441 42.019 11.5337C41.62 11.0233 41.046 10.7681 40.296 10.7681C39.53 10.7681 38.94 11.0233 38.525 11.5337C38.127 12.0441 37.927 12.6662 37.927 13.3999V15.7686C37.927 16.3109 38.015 16.8213 38.19 17.2998C38.366 17.7624 38.589 18.201 38.86 18.6157C39.147 19.0304 39.466 19.4372 39.817 19.8359C40.184 20.2188 40.551 20.6016 40.918 20.9844C41.365 21.4469 41.795 21.9095 42.21 22.3721C42.641 22.8346 43.015 23.3211 43.334 23.8315C43.669 24.342 43.933 24.8843 44.124 25.4585C44.331 26.0168 44.435 26.6149 44.435 27.2529V30.1001C44.435 30.7222 44.347 31.3044 44.172 31.8467C43.996 32.373 43.733 32.8356 43.382 33.2344C43.031 33.6172 42.593 33.9202 42.066 34.1436C41.556 34.3669 40.966 34.4785 40.296 34.4785C39.61 34.4785 39.004 34.3669 38.478 34.1436C37.967 33.9202 37.536 33.6172 37.186 33.2344C36.8346 32.8356 36.5715 32.373 36.396 31.8467C36.2205 31.3044 36.1328 30.7222 36.1328 30.1001V28.4731ZM47.402 11.2466H45.416V9.64357H47.402V6.62887H49.196V9.64357H52.474V11.2466H49.196V30.2437C49.196 30.9774 49.396 31.5994 49.794 32.1099C50.193 32.6043 50.775 32.8516 51.541 32.8516H52.331V34.4785H51.541C50.855 34.4785 50.249 34.3669 49.723 34.1436C49.212 33.9202 48.782 33.6172 48.431 33.2344C48.096 32.8356 47.84 32.373 47.665 31.8467C47.49 31.3044 47.402 30.7222 47.402 30.1001V11.2466ZM59.532 11.103C59.293 11.0392 59.006 11.0073 58.671 11.0073C57.905 11.0073 57.315 11.2625 56.9 11.7729C56.502 12.2834 56.302 12.9054 56.302 13.6392V34H54.508V13.7827C54.508 13.1447 54.596 12.5625 54.771 12.0361C54.946 11.4938 55.21 11.0312 55.561 10.6484C55.911 10.2497 56.342 9.94657 56.853 9.73927C57.379 9.51597 57.985 9.40427 58.671 9.40427C58.958 9.40427 59.237 9.42817 59.508 9.47607C59.779 9.50797 60.027 9.56377 60.25 9.64357L59.532 11.103ZM69.94 9.64357V29.6455C69.94 30.3473 69.852 30.9933 69.677 31.5835C69.501 32.1737 69.238 32.6841 68.887 33.1147C68.536 33.5454 68.098 33.8804 67.571 34.1196C67.061 34.3589 66.463 34.4785 65.777 34.4785C65.091 34.4785 64.485 34.3669 63.958 34.1436C63.448 33.9362 63.017 33.6411 62.667 33.2583C62.332 32.8595 62.076 32.397 61.901 31.8706C61.725 31.3283 61.638 30.7381 61.638 30.1001V9.64357H63.432V30.2437C63.432 30.9774 63.632 31.5994 64.03 32.1099C64.445 32.6203 65.035 32.8755 65.801 32.8755C66.55 32.8755 67.125 32.5884 67.523 32.0142C67.938 31.424 68.146 30.7142 68.146 29.8848V9.64357H69.94ZM74.725 30.1719C74.725 30.9056 74.932 31.5277 75.347 32.0381C75.762 32.5485 76.352 32.8037 77.118 32.8037C77.867 32.8037 78.442 32.5166 78.84 31.9424C79.255 31.3522 79.462 30.6424 79.462 29.813L81.233 29.5737C81.233 30.2756 81.145 30.9215 80.97 31.5117C80.794 32.1019 80.531 32.6123 80.18 33.043C79.829 33.4736 79.391 33.8086 78.864 34.0479C78.354 34.2871 77.756 34.4067 77.07 34.4067C76.384 34.4067 75.778 34.2951 75.251 34.0718C74.741 33.8644 74.31 33.5693 73.959 33.1865C73.625 32.7878 73.369 32.3252 73.194 31.7988C73.018 31.2565 72.931 30.6663 72.931 30.0283V13.998C72.931 13.376 73.018 12.8018 73.194 12.2754C73.369 11.7331 73.632 11.2705 73.983 10.8877C74.334 10.4889 74.765 10.1859 75.275 9.97847C75.802 9.75517 76.408 9.64357 77.094 9.64357H81.233V16.4385H79.438V11.2466H77.094C76.328 11.2466 75.738 11.5018 75.323 12.0122C74.924 12.5226 74.725 13.1447 74.725 13.8784V30.1719ZM84.2 11.2466H82.214V9.64357H84.2V6.62887H85.994V9.64357H89.272V11.2466H85.994V30.2437C85.994 30.9774 86.194 31.5994 86.592 32.1099C86.991 32.6043 87.573 32.8516 88.339 32.8516H89.128V34.4785H88.339C87.653 34.4785 87.047 34.3669 86.521 34.1436C86.01 33.9202 85.579 33.6172 85.229 33.2344C84.894 32.8356 84.638 32.373 84.463 31.8467C84.287 31.3044 84.2 30.7222 84.2 30.1001V11.2466ZM91.545 34V9.64357H93.339V34H91.545ZM91.306 1.38917C91.306 0.591572 91.688 0.192871 92.454 0.192871C92.821 0.192871 93.108 0.296471 93.315 0.503871C93.539 0.695271 93.65 0.990372 93.65 1.38917C93.65 1.69217 93.547 1.95537 93.339 2.17867C93.148 2.40197 92.853 2.51367 92.454 2.51367C92.087 2.51367 91.8 2.40197 91.593 2.17867C91.401 1.95537 91.306 1.69217 91.306 1.38917ZM105.063 29.6455C105.063 30.3473 104.975 30.9933 104.8 31.5835C104.624 32.1737 104.361 32.6841 104.01 33.1147C103.659 33.5454 103.221 33.8804 102.694 34.1196C102.184 34.3589 101.586 34.4785 100.9 34.4785C100.214 34.4785 99.608 34.3669 99.082 34.1436C98.571 33.9362 98.14 33.6411 97.79 33.2583C97.455 32.8595 97.199 32.397 97.024 31.8706C96.848 31.3283 96.761 30.7381 96.761 30.1001V13.5195C96.761 12.8975 96.848 12.3232 97.024 11.7969C97.199 11.2546 97.463 10.792 97.813 10.4092C98.164 10.0104 98.595 9.70737 99.105 9.49997C99.632 9.27667 100.238 9.16497 100.924 9.16497H105.063V29.6455ZM98.555 30.2437C98.555 30.9774 98.755 31.5994 99.153 32.1099C99.568 32.6203 100.158 32.8755 100.924 32.8755C101.674 32.8755 102.248 32.5884 102.646 32.0142C103.061 31.424 103.269 30.7142 103.269 29.8848V10.7681H100.924C100.158 10.7681 99.568 11.0233 99.153 11.5337C98.755 12.0441 98.555 12.6662 98.555 13.3999V30.2437ZM116.595 34H114.801V13.8784C114.801 13.1447 114.593 12.5226 114.179 12.0122C113.78 11.5018 113.206 11.2466 112.456 11.2466H110.087V34H108.293V9.64357H112.456C113.126 9.64357 113.716 9.75517 114.227 9.97847C114.753 10.1859 115.192 10.4889 115.542 10.8877C115.893 11.2705 116.157 11.7331 116.332 12.2754C116.507 12.8018 116.595 13.376 116.595 13.998V34Z" fill="#1C2752" fill-opacity="0.4"/>
</svg>
